<svg xmlns="http://www.w3.org/2000/svg" xmlns:xlink="http://www.w3.org/1999/xlink" version="1.1" x="0px" y="0px" viewBox="0 0 450 562.5" style="enable-background:new 0 0 450 450;" xml:space="preserve"><g><g><path d="M291.4,100.7c-1.2,0-2.4-0.4-3.4-1.3c-2-1.9-2.2-5-0.3-7.1l30.1-32.9c1-1,2.3-1.6,3.7-1.6h74.9c2.8,0,5,2.2,5,5    s-2.2,5-5,5h-72.7l-28.6,31.3C294.1,100.2,292.7,100.7,291.4,100.7z"/></g><g><path d="M339.1,393.7h-47.7c-2.8,0-5-2.2-5-5s2.2-5,5-5h47.7c2.8,0,5,2.2,5,5S341.8,393.7,339.1,393.7z"/></g><g><path d="M383.5,139.4h-92.1c-2.8,0-5-2.2-5-5s2.2-5,5-5h92.1c2.8,0,5,2.2,5,5S386.2,139.4,383.5,139.4z"/></g><g><path d="M340.7,185.1h-49.3c-2.8,0-5-2.2-5-5s2.2-5,5-5h49.3c2.8,0,5,2.2,5,5S343.4,185.1,340.7,185.1z"/></g><g><path d="M383.5,230.7h-92.1c-2.8,0-5-2.2-5-5s2.2-5,5-5h92.1c2.8,0,5,2.2,5,5S386.2,230.7,383.5,230.7z"/></g><g><path d="M340.7,276.4h-49.3c-2.8,0-5-2.2-5-5s2.2-5,5-5h49.3c2.8,0,5,2.2,5,5S343.4,276.4,340.7,276.4z"/></g><g><path d="M383.5,322.1h-92.1c-2.8,0-5-2.2-5-5s2.2-5,5-5h92.1c2.8,0,5,2.2,5,5S386.2,322.1,383.5,322.1z"/></g><g><path d="M418.8,90.2c-15.1,0-27.5-12.3-27.5-27.5s12.3-27.5,27.5-27.5c15.1,0,27.5,12.3,27.5,27.5    C446.3,77.9,433.9,90.2,418.8,90.2z M418.8,45.3c-9.6,0-17.5,7.8-17.5,17.5s7.8,17.5,17.5,17.5s17.5-7.8,17.5-17.5    C436.3,53.1,428.4,45.3,418.8,45.3z"/></g><g><path d="M405.9,161.9c-15.1,0-27.5-12.3-27.5-27.5s12.3-27.5,27.5-27.5c15.1,0,27.5,12.3,27.5,27.5S421.1,161.9,405.9,161.9z     M405.9,116.9c-9.6,0-17.5,7.8-17.5,17.5s7.8,17.5,17.5,17.5s17.5-7.8,17.5-17.5S415.5,116.9,405.9,116.9z"/></g><g><path d="M363.1,207.5c-15.1,0-27.5-12.3-27.5-27.5s12.3-27.5,27.5-27.5s27.5,12.3,27.5,27.5S378.3,207.5,363.1,207.5z     M363.1,162.6c-9.6,0-17.5,7.8-17.5,17.5s7.8,17.5,17.5,17.5s17.5-7.8,17.5-17.5S372.8,162.6,363.1,162.6z"/></g><g><path d="M405.9,253.2c-15.1,0-27.5-12.3-27.5-27.5s12.3-27.5,27.5-27.5c15.1,0,27.5,12.3,27.5,27.5S421.1,253.2,405.9,253.2z     M405.9,208.3c-9.6,0-17.5,7.8-17.5,17.5c0,9.6,7.8,17.5,17.5,17.5s17.5-7.8,17.5-17.5C423.4,216.1,415.5,208.3,405.9,208.3z"/></g><g><path d="M363.1,298.9c-15.1,0-27.5-12.3-27.5-27.5c0-15.1,12.3-27.5,27.5-27.5c15.1,0,27.5,12.3,27.5,27.5    C390.6,286.6,378.3,298.9,363.1,298.9z M363.1,254c-9.6,0-17.5,7.8-17.5,17.5s7.8,17.5,17.5,17.5s17.5-7.8,17.5-17.5    S372.8,254,363.1,254z"/></g><g><path d="M405.9,344.5c-15.1,0-27.5-12.3-27.5-27.5s12.3-27.5,27.5-27.5c15.1,0,27.5,12.3,27.5,27.5S421.1,344.5,405.9,344.5z     M405.9,299.6c-9.6,0-17.5,7.8-17.5,17.5s7.8,17.5,17.5,17.5s17.5-7.8,17.5-17.5S415.5,299.6,405.9,299.6z"/></g><g><path d="M361.5,416.2c-15.1,0-27.5-12.3-27.5-27.5s12.3-27.5,27.5-27.5c15.1,0,27.5,12.3,27.5,27.5S376.7,416.2,361.5,416.2z     M361.5,371.3c-9.6,0-17.5,7.8-17.5,17.5s7.8,17.5,17.5,17.5s17.5-7.8,17.5-17.5S371.2,371.3,361.5,371.3z"/></g><g><g><g><g><path d="M33.3,170.9c-16,0-29-13-29-29s13-29,29-29s29,13,29,29C62.3,157.9,49.3,170.9,33.3,170.9z M33.3,122.9       c-10.5,0-19,8.5-19,19s8.5,19,19,19c10.5,0,19-8.5,19-19C52.3,131.5,43.7,122.9,33.3,122.9z"/></g><g><path d="M117.4,170.9c-16,0-29-13-29-29s13-29,29-29s29,13,29,29S133.4,170.9,117.4,170.9z M117.4,122.9c-10.5,0-19,8.5-19,19       s8.5,19,19,19s19-8.5,19-19S127.9,122.9,117.4,122.9z"/></g><g><path d="M201.5,170.9c-16,0-29-13-29-29s13-29,29-29s29,13,29,29S217.5,170.9,201.5,170.9z M201.5,122.9c-10.5,0-19,8.5-19,19       s8.5,19,19,19s19-8.5,19-19S212,122.9,201.5,122.9z"/></g></g><g><g><path d="M33.3,265.8c-16,0-29-13-29-29s13-29,29-29s29,13,29,29C62.3,252.8,49.3,265.8,33.3,265.8z M33.3,217.9       c-10.5,0-19,8.5-19,19c0,10.5,8.5,19,19,19c10.5,0,19-8.5,19-19S43.7,217.9,33.3,217.9z"/></g><g><path d="M117.4,265.8c-16,0-29-13-29-29s13-29,29-29s29,13,29,29C146.4,252.8,133.4,265.8,117.4,265.8z M117.4,217.9       c-10.5,0-19,8.5-19,19c0,10.5,8.5,19,19,19s19-8.5,19-19S127.9,217.9,117.4,217.9z"/></g><g><path d="M201.5,265.8c-16,0-29-13-29-29s13-29,29-29s29,13,29,29C230.5,252.8,217.5,265.8,201.5,265.8z M201.5,217.9       c-10.5,0-19,8.5-19,19c0,10.5,8.5,19,19,19s19-8.5,19-19S212,217.9,201.5,217.9z"/></g></g><g><g><path d="M33.3,360.8c-16,0-29-13-29-29s13-29,29-29s29,13,29,29S49.3,360.8,33.3,360.8z M33.3,312.8c-10.5,0-19,8.5-19,19       s8.5,19,19,19c10.5,0,19-8.5,19-19S43.7,312.8,33.3,312.8z"/></g><g><path d="M117.4,360.8c-16,0-29-13-29-29s13-29,29-29s29,13,29,29S133.4,360.8,117.4,360.8z M117.4,312.8c-10.5,0-19,8.5-19,19       s8.5,19,19,19s19-8.5,19-19S127.9,312.8,117.4,312.8z"/></g><g><path d="M201.5,360.8c-16,0-29-13-29-29s13-29,29-29s29,13,29,29S217.5,360.8,201.5,360.8z M201.5,312.8c-10.5,0-19,8.5-19,19       s8.5,19,19,19s19-8.5,19-19S212,312.8,201.5,312.8z"/></g></g></g><g><g><path d="M133.3,223.9c-1.2,0-2.4-0.4-3.3-1.3c-2.1-1.8-2.3-5-0.4-7.1l52.3-59c1.8-2.1,5-2.3,7.1-0.4c2.1,1.8,2.3,5,0.4,7.1      l-52.3,59C136.1,223.3,134.7,223.9,133.3,223.9z M101.5,223.9c-1.4,0-2.8-0.6-3.7-1.7l-52.3-59c-1.8-2.1-1.6-5.2,0.4-7.1      s5.2-1.6,7.1,0.4l52.3,59c1.8,2.1,1.6,5.2-0.4,7.1C103.8,223.5,102.7,223.9,101.5,223.9z"/></g><g><path d="M177.5,241.9h-36.1c-2.8,0-5-2.2-5-5c0-10.5-8.5-19-19-19c-10.5,0-19,8.5-19,19c0,2.8-2.2,5-5,5H57.3c-2.8,0-5-2.2-5-5      c0-5.4-2.3-10.6-6.4-14.2c-2.1-1.8-2.3-5-0.4-7.1l52.3-59c0.9-1,2.1-1.6,3.4-1.7c1.3-0.1,2.6,0.4,3.6,1.3      c3.5,3.1,8,4.8,12.6,4.8s9.1-1.7,12.6-4.8c1-0.9,2.3-1.3,3.6-1.3c1.3,0.1,2.6,0.7,3.4,1.7l52.3,59c1.8,2.1,1.6,5.2-0.4,7.1      c-4.1,3.6-6.4,8.8-6.4,14.2c0,1.3-0.5,2.6-1.5,3.5C180.1,241.3,178.8,241.9,177.5,241.9z M145.9,231.9h27      c0.8-4.8,2.9-9.3,5.9-13.1l-46.2-52.2c-4.5,2.8-9.8,4.3-15.2,4.3s-10.7-1.5-15.2-4.3L56,218.8c3,3.8,5,8.3,5.9,13.1h27      c2.4-13.6,14.3-24,28.6-24C131.7,207.9,143.6,218.2,145.9,231.9z"/></g><g><path d="M177.5,336.8h-36.1c-2.8,0-5-2.2-5-5c0-10.5-8.5-19-19-19c-10.5,0-19,8.5-19,19c0,2.8-2.2,5-5,5H57.3c-2.8,0-5-2.2-5-5      c0-5.4-2.3-10.6-6.4-14.2c-2.1-1.8-2.3-5-0.4-7.1l52.3-59c0.9-1,2.1-1.6,3.4-1.7c1.3-0.1,2.6,0.4,3.6,1.3      c3.5,3.1,8,4.8,12.6,4.8s9.1-1.7,12.6-4.8c1-0.9,2.3-1.3,3.6-1.3c1.3,0.1,2.6,0.7,3.4,1.7l52.3,59c1.8,2.1,1.6,5.2-0.4,7.1      c-4.1,3.6-6.4,8.8-6.4,14.2c0,1.3-0.5,2.6-1.5,3.5C180.1,336.2,178.8,336.8,177.5,336.8z M62.3,331.8L62.3,331.8L62.3,331.8z       M145.9,326.8h27c0.8-4.8,2.9-9.3,5.9-13.1l-46.2-52.2c-4.5,2.8-9.8,4.3-15.2,4.3s-10.7-1.5-15.2-4.3l-46.3,52.2      c3,3.8,5,8.3,5.9,13.1h27c2.4-13.6,14.3-24,28.6-24C131.7,302.8,143.6,313.1,145.9,326.8z"/></g><g><path d="M101.3,318.9c-1.4,0-2.8-0.6-3.8-1.7l-52.2-59.1c-1.8-2.1-1.6-5.2,0.4-7.1s5.2-1.6,7.1,0.4l52.2,59.1      c1.8,2.1,1.6,5.2-0.4,7.1C103.7,318.5,102.5,318.9,101.3,318.9z"/></g><g><path d="M133.3,318.8c-1.2,0-2.4-0.4-3.3-1.3c-2.1-1.8-2.3-5-0.4-7.1l52.3-59c1.8-2.1,5-2.3,7.1-0.4c2.1,1.8,2.3,5,0.4,7.1      l-52.3,59C136.1,318.2,134.7,318.8,133.3,318.8z"/></g><g><path d="M177.5,146.9h-36.1c-2.8,0-5-2.2-5-5s2.2-5,5-5h36.1c2.8,0,5,2.2,5,5S180.3,146.9,177.5,146.9z M93.4,146.9H57.3      c-2.8,0-5-2.2-5-5s2.2-5,5-5h36.1c2.8,0,5,2.2,5,5S96.2,146.9,93.4,146.9z"/></g></g></g><g><path d="M272.9,412.2c-12.9,0-23.5-10.5-23.5-23.5V85c0-12.9,10.5-23.5,23.5-23.5S296.4,72,296.4,85v303.7    C296.4,401.6,285.9,412.2,272.9,412.2z M272.9,71.5c-7.4,0-13.5,6-13.5,13.5v303.7c0,7.4,6,13.5,13.5,13.5s13.5-6,13.5-13.5V85    C286.4,77.6,280.4,71.5,272.9,71.5z"/></g><g><path d="M254.5,146.9h-29c-2.8,0-5-2.2-5-5s2.2-5,5-5h29c2.8,0,5,2.2,5,5S257.2,146.9,254.5,146.9z"/></g><g><path d="M254.5,241.9h-29c-2.8,0-5-2.2-5-5s2.2-5,5-5h29c2.8,0,5,2.2,5,5C259.5,239.6,257.2,241.9,254.5,241.9z"/></g><g><path d="M254.5,336.8h-29c-2.8,0-5-2.2-5-5s2.2-5,5-5h29c2.8,0,5,2.2,5,5S257.2,336.8,254.5,336.8z"/></g></g><text x="0" y="465" fill="#000000" font-size="5px" font-weight="bold" font-family="'Helvetica Neue', Helvetica, Arial-Unicode, Arial, Sans-serif">Created by SAM Designs</text><text x="0" y="470" fill="#000000" font-size="5px" font-weight="bold" font-family="'Helvetica Neue', Helvetica, Arial-Unicode, Arial, Sans-serif">from the Noun Project</text></svg>