<svg xmlns="http://www.w3.org/2000/svg" viewBox="0 0 60 75" x="0px" y="0px"><circle cx="37" cy="44" r="1"/><circle cx="38" cy="52" r="1"/><circle cx="37" cy="16" r="1"/><circle cx="45" cy="41" r="1"/><circle cx="38" cy="8" r="1"/><path d="M41,28H56V20H47.816a3,3,0,1,1,0-2h8.16a2.015,2.015,0,0,0-.562-1.172L50.5,11.914l-.793.793a1,1,0,0,1-1.414-1.414l.793-.793L47.5,8.914l-2.793,2.793a1,1,0,0,1-1.414-1.414L46.086,7.5,41.172,2.586A2.015,2.015,0,0,0,39.758,2H39V5.184a3,3,0,1,1-2,0V2H35.6a2,2,0,0,0-1.664.891L31,7.3V15h3.184a3,3,0,1,1,0,2H31V31h6a1,1,0,0,1,0,2H31v3h3a1,1,0,0,1,0,2H31v5h3.184a3,3,0,1,1,0,2H31v6c0,.24-.018.476-.036.711l2.176,5.077A2,2,0,0,0,34.979,58H37V54.816a3,3,0,1,1,2,0V58h.758a2.015,2.015,0,0,0,1.414-.586L46.086,52.5l-2.793-2.793a1,1,0,0,1,1.414-1.414L47.5,51.086,49.086,49.5l-.793-.793a1,1,0,0,1,1.414-1.414l.793.793,4.914-4.914A2.015,2.015,0,0,0,55.976,42h-8.16a3,3,0,1,1,0-2H56V35H47a1,1,0,0,1,0-2h9V30H41a3,3,0,0,1-3-3v-.184a3,3,0,1,1,2,0V27A1,1,0,0,0,41,28Z"/><circle cx="39" cy="24" r="1"/><circle cx="45" cy="19" r="1"/><path d="M8.291,43.75a1,1,0,0,1,.717,1.021,6.648,6.648,0,0,0,5.417,7.054,1,1,0,0,1,.75.749A7,7,0,0,0,29,51V7a5,5,0,0,0-9.758-1.526,1,1,0,0,1-1.206.663A4,4,0,0,0,13,10a3.96,3.96,0,0,0,.836,2.441,1,1,0,0,1-.671,1.612A6.98,6.98,0,0,0,7,21a6.763,6.763,0,0,0,.2,1.646,1,1,0,0,1-.293.98A5.954,5.954,0,0,0,5,28a5.889,5.889,0,0,0,1.421,3.871,1,1,0,0,1-.144,1.436A5.924,5.924,0,0,0,4,38,6.016,6.016,0,0,0,8.291,43.75Z"/><text x="0" y="75" fill="#000000" font-size="5px" font-weight="bold" font-family="'Helvetica Neue', Helvetica, Arial-Unicode, Arial, Sans-serif">Created by Juicy Fish</text><text x="0" y="80" fill="#000000" font-size="5px" font-weight="bold" font-family="'Helvetica Neue', Helvetica, Arial-Unicode, Arial, Sans-serif">from the Noun Project</text></svg>