<svg xmlns="http://www.w3.org/2000/svg" viewBox="0 0 64 80" x="0px" y="0px"><g data-name="13-muay thai"><path d="M29,14H24a1,1,0,0,1-.949-.684l-2-6a1,1,0,0,1,.242-1.023L22,5.586V2H20.236L17,3.618V5.7l3.59-1.614.82,1.824L17.653,7.6a1.011,1.011,0,0,1-.168.058A2,2,0,0,1,15,5.719V3a1,1,0,0,1,.553-.895l4-2A1,1,0,0,1,20,0h3a1,1,0,0,1,1,1V6a1,1,0,0,1-.293.707l-.563.563L24.721,12h4.043l1.789-.895a1,1,0,0,1,.69-.075l4,1-.486,1.94-3.641-.91-1.669.835A1,1,0,0,1,29,14Z"/><path d="M39,17c-3.3,0-3.893-1.208-3.985-1.807L33.039,8.275a1,1,0,0,1,.012-.591C33.1,7.533,34.322,4,38,4a13.128,13.128,0,0,1,5.447,1.105A1,1,0,0,1,44,6v8a1,1,0,0,1-.1.447A5.319,5.319,0,0,1,39,17Zm-2.051-2.32A4.208,4.208,0,0,0,39,15a3.56,3.56,0,0,0,3-1.29V6.671A12.053,12.053,0,0,0,38,6a3.315,3.315,0,0,0-2.943,2.059ZM37,15v0Zm0,0h0Z"/><path d="M43,11c-2.346,0-10-.216-10-3h2a.459.459,0,0,0-.082-.274C35.3,8.156,38.148,9,43,9Z"/><path d="M52,33H46a1,1,0,0,1-.919-.606L42.662,26.75A1,1,0,0,1,42,27H40a1,1,0,0,1-.832-.445l-2-3A1,1,0,0,1,37.4,22.2l4-3a1,1,0,0,1,1.173-.019l10,7A1,1,0,0,1,53,27v5A1,1,0,0,1,52,33Zm-5.341-2H51V27.521l-8.98-6.286-2.663,2L40.535,25h1.051l.707-.707a1,1,0,0,1,1.626.313Z"/><rect x="42.793" y="23.5" width="1.414" height="2" transform="translate(-4.583 37.935) rotate(-45)"/><rect x="42" y="14" width="2" height="4"/><path d="M50.01,26.142,49.089,19.7l-6.483-2.779.788-1.838,7,3a1,1,0,0,1,.6.777l1,7Z"/><path d="M30,20H24a1,1,0,0,1-.243-.03l-4-1a1,1,0,0,1-.652-.523l-2-4a1,1,0,0,1-.1-.571l1-8,1.984.248-.962,7.7,1.659,3.318L24.123,18H30Z"/><path d="M40,34a.993.993,0,0,1-.394-.081l-7-3a1,1,0,0,1-.463-.4l-3-5A1,1,0,0,1,29,25V22h2v2.723l2.691,4.485,6.417,2.75L44,31.18V30h2v2a1,1,0,0,1-.8.98l-5,1A1,1,0,0,1,40,34Z"/><path d="M37,46a1,1,0,0,1-.969-.758l-.9-3.6-4.482-2.69-5.813-.969a1,1,0,0,1-.749-1.392l4-9a1,1,0,0,1,1.361-.489l4,2-.894,1.79-3.064-1.533-3.051,6.864,4.727.788a.987.987,0,0,1,.35.129l5,3a1,1,0,0,1,.455.615l.758,3.029,5.918-1.479-2.375-5.937,1.858-.742,2.8,7a1,1,0,0,1-.686,1.341l-8,2A1.025,1.025,0,0,1,37,46Z"/><path d="M15,46a1,1,0,0,1-1-1V29a1,1,0,0,1,.4-.8l4-3A1,1,0,0,1,19,25h5a1.012,1.012,0,0,1,.372.071l5,2-.744,1.858L23.808,27H19.333L16,29.5V43.612l1.209-.4L20,34.838V29h2v6a1,1,0,0,1-.051.316l-3,9a1,1,0,0,1-.633.632l-3,1A.983.983,0,0,1,15,46Z"/><rect x="22.5" y="30.585" width="2" height="5.831" transform="translate(-17.317 36.415) rotate(-59.036)"/><path d="M15,53a.992.992,0,0,1-.316-.052l-3-1a1,1,0,0,1-.6-1.342l3-7,1.838.788-2.572,6,1.269.422,3.89-5.446-.953-.476.894-1.79.953.477a2,2,0,0,1,.734,2.951l-4.32,6.048A1,1,0,0,1,15,53Z"/><path d="M41,61H38a1,1,0,0,1-.97-1.242l1.963-7.852c-.095-.826-1.044-4.445-1.954-7.632l1.922-.548A75.9,75.9,0,0,1,41,52a.984.984,0,0,1-.03.242L39.281,59h1.1l3.592-7.183-.968-8.707,1.988-.22,1,9a1.012,1.012,0,0,1-.1.557l-4,8A1,1,0,0,1,41,61Z"/><path d="M46,64H38a1,1,0,0,1-1-1V60h2v2h6v-.181l-4.2-.839.392-1.96,5,1A1,1,0,0,1,47,61v2A1,1,0,0,1,46,64Z"/><rect x="17.95" y="7.5" width="5.099" height="2" transform="matrix(0.981, -0.196, 0.196, 0.981, -1.27, 4.19)"/><rect x="43" y="24" width="5" height="2" transform="translate(-1.804 46.391) rotate(-53.119)"/><rect x="35.877" y="40" width="8.246" height="1.999" transform="translate(-8.757 10.937) rotate(-14.05)"/><rect x="25.076" y="32.5" width="9.849" height="2" transform="translate(-12.8 47.3) rotate(-66.026)"/></g><text x="0" y="79" fill="#000000" font-size="5px" font-weight="bold" font-family="'Helvetica Neue', Helvetica, Arial-Unicode, Arial, Sans-serif">Created by Justicon</text><text x="0" y="84" fill="#000000" font-size="5px" font-weight="bold" font-family="'Helvetica Neue', Helvetica, Arial-Unicode, Arial, Sans-serif">from the Noun Project</text></svg>